<?xml version="1.0" encoding="utf-8"?>
<!-- Generator: Adobe Illustrator 24.0.0, SVG Export Plug-In . SVG Version: 6.00 Build 0)  -->
<svg version="1.1" id="Layer_1" xmlns="http://www.w3.org/2000/svg" xmlns:xlink="http://www.w3.org/1999/xlink" x="0px" y="0px"
	 viewBox="0 0 24 24" style="enable-background:new 0 0 24 24;" xml:space="preserve">
<path id="original-2" d="M3.3,13.5c-0.2,2-0.3,4-0.3,5.9l0,0.5l-2.8,2.8C0.1,22.9,0,23.1,0,23.3C0,23.7,0.4,24,0.7,24
	c0.2,0,0.4-0.1,0.5-0.2L4.1,21l0.5,0c2,0,4-0.1,5.9-0.3C22.2,19.5,23.8,2.4,24,0C21.6,0.2,4.5,1.8,3.3,13.5z M4.8,13.6
	c0.9-9,12.7-11.4,17.5-12c-0.3,2.1-0.9,5.5-2.2,8.8h-5.5l1.7-1.7c0.3-0.3,0.3-0.8,0-1.1s-0.8-0.3-1.1,0L4.5,18.4
	C4.6,16.8,4.7,15.2,4.8,13.6L4.8,13.6z M10.1,15l3-3h6.3c-0.5,1.1-1.2,2.1-1.9,3H10.1z M10.3,19.2c-1.6,0.2-3.2,0.3-4.8,0.3l3-3h7.6
	C14.6,17.9,12.7,18.9,10.3,19.2z"/>
</svg>
